<?xml version="1.0" encoding="UTF-8"?>
<svg width="173px" height="93px" viewBox="0 0 173 93" version="1.1" xmlns="http://www.w3.org/2000/svg" xmlns:xlink="http://www.w3.org/1999/xlink">
    <!-- Generator: Sketch 46.2 (44496) - http://www.bohemiancoding.com/sketch -->
    <title>Group 9</title>
    <desc>Created with Sketch.</desc>
    <defs></defs>
    <g id="Page-2" stroke="none" stroke-width="1" fill="none" fill-rule="evenodd">
        <g id="Page-Layout" transform="translate(-12.000000, -55.000000)">
            <g id="Group-9" transform="translate(11.789062, 55.554688)">
                <path d="M34.0792517,45.2028534 C34.5041613,42.6854634 34.9330799,40.1640643 35.3660069,37.6386569 C35.7989339,35.1132444 36.2438866,32.5798196 36.7008651,30.0383833 C37.1418095,27.5049592 37.5967834,24.963517 38.0657877,22.4140581 C38.5347919,19.8645992 39.009809,17.3151403 39.490839,14.7656814 C38.6009335,14.8538693 37.7150364,14.9440624 36.8331483,15.0362608 C35.951253,15.1284592 35.0693649,15.2186523 34.1874835,15.3068401 C33.297578,15.4030461 32.4116812,15.4952445 31.5297928,15.5834324 C30.6479044,15.6716202 29.7620076,15.7638186 28.8721022,15.8600246 C29.858214,13.1983264 30.9966517,10.2359815 32.287415,6.97299574 C35.5103174,6.46791427 38.7292099,5.96483806 41.9440919,5.46376418 C45.1589761,4.9625347 48.3698512,4.4674737 51.5767172,3.97858412 C54.7675484,3.48921304 57.9583826,3.00617779 61.1492138,2.52948131 C64.340045,2.05245893 67.5268686,1.57343423 70.7096846,1.09240425 C69.8919337,2.51144268 69.0822009,3.92246298 68.2804832,5.32546806 C67.4787656,6.72847315 66.6850662,8.12346009 65.8993848,9.51042888 C64.801034,9.74292573 63.7046856,9.97141497 62.6103424,10.1958966 C61.5159992,10.4203782 60.4236612,10.6408493 59.3333256,10.8573128 C57.0243817,11.3383428 54.8517287,11.7792879 52.8153694,12.1801453 C52.0376593,14.9059828 51.2660075,17.6278098 50.5004126,20.3456292 C49.7347737,23.0634486 48.9791553,25.7772589 48.2335589,28.4870616 C47.4959791,31.1808295 46.7684212,33.8745973 46.0508853,36.5683652 C45.3333171,39.2621331 44.6217941,41.9438752 43.9163148,44.6135916 C43.0905471,44.6697117 42.2667833,44.7218234 41.4450233,44.7699264 C40.623264,44.8180294 39.8035085,44.8661324 38.9857575,44.9142354 L34.0792517,45.2028534 Z M95.7472951,0.082241289 L95.9517328,0.0100867921 L96.1681963,0.0100867921 L96.1681963,0.358833527 L96.0238873,1.17658449 L95.9517328,1.65761447 L95.8916041,2.06648995 L95.7472951,2.88424092 L95.6751406,3.3652709 L95.6150118,3.77414638 L95.5428573,4.18302186 L95.4827286,4.6039231 L95.3384196,5.42167406 L95.2662651,5.89067829 L95.2061363,6.31157952 L95.1339818,6.720455 L95.0618273,7.20148498 L94.9896729,7.61036047 L94.9295441,8.01923595 L94.8573896,8.42811143 L94.7972609,8.83698691 L94.7251064,9.2458624 L94.6529519,9.72689238 L94.5807974,10.1357679 L94.5206686,10.5446433 L94.3763596,11.3623943 L94.3042051,11.7832955 L94.2440764,12.192171 L94.1719219,12.6010465 L94.1117931,13.009922 L94.0396386,13.4187975 L93.9674841,13.8998274 L93.8953296,14.3087029 L93.8352009,14.7175784 L93.6908919,15.5353294 L93.6307632,15.8840761 L93.4864542,16.7018271 L93.4263254,17.1107026 L93.3541709,17.519578 L93.2820164,17.9404793 L93.2218877,18.3493548 L93.0775787,19.1671057 L93.0174499,19.5759812 L92.8731409,20.3937322 L92.8130122,20.8146334 L92.7408577,21.2235089 L92.6687032,21.5602299 L92.5965487,21.9691054 L92.53642,22.3779808 L92.4642655,22.7868563 L92.4041367,23.1957318 L92.3319822,23.6046073 L92.2598277,23.953354 L92.1876732,24.3622295 L92.1275445,24.771105 L91.9832355,25.5888559 L91.911081,25.9376027 L91.8509522,26.3464782 L91.7787977,26.7553536 L91.718669,27.1642291 L91.6465145,27.5129759 L91.5022055,28.3307268 L91.4420768,28.6674478 L91.2977678,29.4851988 L91.2256133,29.8339455 L91.1654845,30.242821 L91.09333,30.5915677 L91.0332013,31.0004432 L90.9610468,31.3371642 L90.8888923,31.7460397 L90.8167378,32.0947864 L90.756609,32.5036619 L90.6123,33.3214129 L90.5521713,33.6581338 L90.4800168,34.0790351 L90.4078623,34.4157561 L90.3477336,34.8246315 L90.2755791,35.1733783 L90.2034246,35.5822538 L90.1432958,35.9911292 L90.0711413,36.3278502 L89.9989868,36.676597 L89.9268323,37.0854725 L89.8667036,37.4221934 L89.7945491,37.8430947 L89.7344203,38.2519702 L89.6622658,38.5886911 L89.5901113,38.9374379 L89.5179568,39.3463134 L89.4578281,39.6830343 L89.3135191,40.5007853 L89.2533903,40.849532 L89.1812359,41.2584075 L89.1090814,41.5951285 L89.0489526,41.9438752 L88.9767981,42.3527507 L88.9046436,42.6894717 L88.8324891,43.1103729 L88.7723604,43.4470939 L88.7002059,43.7838149 L88.6400771,44.1926904 L88.5679226,44.6015659 L88.4957681,44.9503126 L88.4236136,45.0825959 L86.439365,45.1547504 L82.2664299,45.2269049 L79.0555548,45.2269049 L78.995426,45.1547504 L78.995426,45.0224671 L79.0555548,44.5414371 L79.1277093,44.0604072 L79.187838,43.5793772 L79.2599925,43.1705017 L79.4043015,42.2084417 L79.4644303,41.7995663 L79.5365848,41.330562 L79.6808938,40.3685021 L79.7410225,39.9596266 L79.813177,39.4785966 L79.8733057,38.9975666 L79.9454602,38.5886911 L80.0897692,37.6266312 L80.149898,37.1576269 L80.2220525,36.7367257 L80.294207,36.2677215 L80.3663615,35.7866915 L80.4264902,35.3056615 L80.4986447,34.8246315 L80.5587735,34.3436016 L80.630928,33.9347261 L80.7030825,33.4657219 L80.775237,32.9846919 L80.8353657,32.5036619 L80.9796747,31.5416019 L81.0398034,31.060572 L81.1119579,30.6516965 L81.1720867,30.1105378 L81.3163957,29.1484778 L81.3765244,28.6674478 L81.4486789,28.1984436 L81.5208334,27.7174136 L81.5809622,27.2363836 L81.3163957,27.2363836 L80.8353657,27.3085381 L80.294207,27.3686669 L79.813177,27.4408214 L79.2599925,27.5129759 L78.7789625,27.5731046 L78.2378038,27.6452591 L77.7567738,27.7174136 L77.2877696,27.7775424 L76.7947139,27.8496968 L76.2535552,27.9218513 L75.7725252,27.9819801 L74.8104652,28.1262891 L74.2693065,28.1984436 L73.7882765,28.2585723 L73.3072465,28.3307268 L72.8382423,28.3908556 L72.3451866,28.4630101 L71.8761823,28.5351646 L71.3951524,28.6073191 L70.9141224,28.6674478 L70.7818391,28.6674478 L70.7818391,29.2206323 L70.7096846,29.761791 L70.6375301,30.38713 L70.5774014,31.0004432 L70.4330924,32.2270697 L70.3729637,32.7802541 L70.2286547,34.0068806 L70.1685259,34.6201938 L70.0963714,35.233507 L70.0242169,35.858846 L69.9520624,36.4721592 L69.8919337,37.013318 L69.8197792,37.6266312 L69.7476247,38.2519702 L69.6874959,38.8652834 L69.5431869,40.0919098 L69.4830582,40.6450943 L69.2665947,42.485034 L69.206466,43.1103729 L69.1343115,43.7236862 L69.0741827,44.3369994 L69.0020282,44.9503126 L68.9298737,45.2269049 L64.4803464,45.2269049 L58.0465704,45.1547504 L58.0465704,44.0604072 L58.1187249,42.629343 L58.1908794,41.1140985 L58.2630339,39.6830343 L58.3231627,38.2519702 L58.3953172,36.8088802 L58.4554459,35.4379448 L58.5276004,34.1391638 L58.5997549,32.7802541 L58.6719094,31.4694474 L58.7320382,30.242821 L58.8041927,28.9440401 L58.8763471,27.7174136 L58.9485016,26.4787614 L59.0086304,25.3122637 L59.0807849,24.0856373 L59.1409136,22.9191396 L59.2130681,21.8247964 L59.2852226,20.6703244 L59.3573771,19.5759812 L59.4175059,18.4215093 L59.4896604,17.327166 L59.5618149,16.2207971 L59.6219436,15.1264539 L59.6940981,14.0321107 L59.7662526,12.9497932 L59.8263814,12.8054842 L59.9706904,12.7333297 L60.1751281,12.673201 L60.5840036,12.528892 L60.7884413,12.4687633 L61.1973168,12.3244543 L61.4017545,12.2643255 L61.81063,12.1200165 L62.0270935,12.047862 L62.2195055,11.9877333 L62.435969,11.9155788 L62.6404067,11.85545 L63.25372,11.6389865 L63.4581577,11.5788578 L64.0714709,11.3623943 L64.2759087,11.3022656 L64.4803464,11.2301111 L64.6968099,11.1699823 L64.8892219,11.0978278 L65.1056854,11.0256733 L65.3101231,10.9535188 L65.5145609,10.8933901 L65.9234363,10.7490811 L66.1278741,10.6889523 L66.5367496,10.5446433 L66.7411873,10.4845146 L67.1500628,10.3402056 L67.3545005,10.2800769 L67.5589383,10.2079224 L67.7754018,10.1357679 L67.9678138,10.0756391 L68.1842773,10.0034846 L68.388715,9.93133012 L68.5931527,9.87120137 L69.206466,9.65473788 L69.4109037,9.59460913 L69.6153414,9.52245463 L69.8197792,9.46232589 L70.0963714,9.39017139 L70.2286547,9.31801689 L70.4330924,9.2458624 L70.6375301,9.18573365 L70.9141224,9.11357915 L71.3229979,8.96927016 L71.5394614,8.90914141 L71.6717446,8.90914141 L71.6717446,11.3022656 L71.5995901,13.9719819 L71.5394614,16.2207971 L71.4673069,18.4215093 L71.3951524,20.4658867 L71.3109721,21.0070454 L71.4673069,20.9469166 L71.7318733,20.8747621 L71.9363111,20.8146334 L72.7660878,20.5981699 L73.0306543,20.5380412 L73.2471178,20.4658867 L73.52371,20.3937322 L73.7882765,20.3336034 L74.341461,20.1892944 L74.6180532,20.1291657 L74.8826197,20.0570112 L75.0870575,19.9848567 L75.3636497,19.9247279 L75.9168342,19.7804189 L76.1814007,19.7202902 L76.4579929,19.6481357 L76.6624306,19.5759812 L76.9390229,19.5158525 L77.2156151,19.443698 L77.4801816,19.3715435 L77.6966451,19.299389 L78.0333661,19.2392602 L78.2378038,19.1671057 L78.5143961,19.106977 L78.7789625,19.0348225 L79.332147,18.8905135 L79.5365848,18.8303847 L80.3663615,18.6139212 L80.630928,18.5537925 L80.8353657,18.481638 L81.1119579,18.4215093 L81.3765244,18.3493548 L81.9297089,18.2050458 L82.2063011,18.144917 L82.4708676,18.0727625 L82.6753054,18.000608 L82.9518976,17.9404793 L83.1563354,17.8683248 L83.3006444,17.8683248 L83.3006444,17.663887 L83.3607731,17.2550116 L83.4329276,16.9062648 L83.5772366,16.0885139 L83.6373653,15.6796384 L83.7095198,15.3429174 L83.7696486,14.9340419 L83.8418031,14.5852952 L83.9861121,13.7675442 L84.0462408,13.3586687 L84.1183953,13.009922 L84.1905498,12.6010465 L84.2506786,12.2643255 L84.3228331,11.85545 L84.3949876,11.4345488 L84.4551163,11.0978278 L84.5272708,10.6167978 L84.5994253,10.2800769 L84.659554,9.87120137 L84.7317085,9.52245463 L84.803863,9.11357915 L84.8639918,8.70470367 L84.9361463,8.35595693 L85.0083008,7.94708145 L85.0684295,7.53820597 L85.2127385,6.720455 L85.284893,6.38373402 L85.3450218,5.96283279 L85.4171763,5.6261118 L85.477305,5.21723632 L85.5494595,4.79633509 L85.621614,4.4596141 L85.6937685,4.05073862 L85.7538972,3.64186314 L85.8260517,3.3652709 L85.9703607,3.30514215 L86.1627727,3.23298765 L86.3792362,3.16083316 L86.583674,3.08867866 L86.7881117,3.02854991 L87.1969872,2.88424092 L87.4014249,2.82411217 L87.8103004,2.67980318 L88.0147382,2.61967443 L88.2191759,2.54751993 L88.4957681,2.47536544 L88.7002059,2.40321094 L88.9046436,2.34308219 L89.1090814,2.2709277 L89.3135191,2.21079895 L89.4578281,2.13864445 L89.8667036,1.99433546 L90.1432958,1.93420671 L90.756609,1.71774322 L90.9610468,1.65761447 L91.1654845,1.58545997 L91.3699223,1.52533123 L91.7787977,1.38102223 L92.05539,1.30886774 L92.2598277,1.24873899 L92.4041367,1.17658449 L92.6687032,1.10443 L92.8731409,1.04430125 L93.2820164,0.899992254 L93.4864542,0.839863506 L93.8953296,0.695554513 L94.1117931,0.635425765 L94.3042051,0.563271268 L94.5206686,0.491116771 L94.7251064,0.430988024 L95.1339818,0.28667903 L95.3384196,0.226550283 L95.6150118,0.154395786 L95.7472951,0.082241289 Z M123.598931,1.57343423 L123.875523,1.50127973 L124.067935,1.50127973 L124.067935,1.70571747 L124.007806,1.91015521 L123.935652,2.18674745 L123.875523,2.39118519 L123.731214,2.80006067 L123.65906,3.07665291 L123.598931,3.35324515 L123.526776,3.54565714 L123.466648,3.76212063 L123.394493,4.03871287 L123.322339,4.23112486 L123.250184,4.44758835 L123.190055,4.71215484 L123.117901,4.91659258 L123.045746,5.13305607 L122.973592,5.39762256 L122.913463,5.6020603 L122.841309,5.87865254 L122.78118,6.08309028 L122.709025,6.28752802 L122.636871,6.56412026 L122.564716,6.768558 L122.504588,7.04515024 L122.360279,7.45402572 L122.30015,7.73061796 L122.227995,7.99518445 L122.155841,8.21164794 L122.095712,8.41608568 L122.023558,8.68065217 L121.951403,8.88508991 L121.879249,9.16168215 L121.81912,9.36611989 L121.746965,9.57055763 L121.686837,9.84714987 L121.614682,10.0515876 L121.542528,10.3281798 L121.470373,10.3883086 L121.410244,10.4604631 L120.85706,10.6047721 L120.652622,10.6649008 L120.388056,10.7370553 L119.834871,10.8813643 L119.630434,10.9414931 L119.353841,11.0136476 L119.149404,11.0737763 L118.884837,11.1459308 L118.668374,11.2180853 L118.331653,11.2902398 L118.127215,11.3503686 L117.922777,11.4225231 L117.646185,11.4946775 L117.369593,11.5548063 L117.105026,11.6269608 L116.900588,11.6991153 L116.623996,11.759244 L116.347404,11.8313985 L116.142966,11.903553 L115.8784,11.9636818 L115.673962,12.0358363 L115.120777,12.1801453 L114.856211,12.240274 L114.639748,12.3124285 L114.363155,12.3725573 L114.098589,12.4447118 L113.894151,12.5168663 L113.617559,12.5890208 L113.340967,12.6491495 L113.0764,12.721304 L112.859937,12.7934585 L112.59537,12.8535872 L112.390932,12.9257417 L112.11434,12.9978962 L111.837748,13.058025 L111.561156,13.1301795 L111.296589,13.202334 L111.092151,13.2744885 L110.815559,13.3346172 L110.538967,13.4067717 L110.334529,13.4789262 L110.057937,13.539055 L109.781345,13.6112095 L109.516778,13.683364 L109.31234,13.7434927 L108.759156,13.8878017 L108.554718,13.9599562 L108.290152,14.0200849 L108.01356,14.0922394 L107.736967,14.1523682 L107.53253,14.2245227 L106.979345,14.3688317 L106.786933,14.4289604 L106.233749,14.5732694 L105.957156,14.6333982 L105.752719,14.7055527 L105.476126,14.7777072 L105.21156,14.8378359 L104.934968,14.9099904 L104.862813,15.4511491 L104.802684,15.9442049 L104.73053,16.4853636 L104.658375,16.9663936 L104.598247,17.5075523 L104.526092,18.0607368 L104.453938,18.529741 L104.393809,19.0829255 L104.321654,19.63611 L104.2495,20.1171399 L104.177345,20.7304532 L104.117217,21.1994574 L104.045062,21.7526419 L103.960882,21.8849251 L104.802684,21.8127706 L105.957156,21.7526419 L107.0515,21.6804874 L108.290152,21.6203586 L109.444624,21.5482041 L110.611121,21.4760496 L111.777619,21.4159209 L114.230872,21.2716119 L115.469524,21.1994574 L116.684125,21.1393286 L117.982906,21.0671741 L118.331653,21.0671741 L118.331653,21.4159209 L118.259498,21.7526419 L118.199369,22.0172083 L118.05506,22.5703928 L117.982906,22.9071138 L117.922777,23.183706 L117.850623,23.4602983 L117.778468,23.7970193 L117.718339,24.0736115 L117.646185,24.3502037 L117.57403,24.6869247 L117.513902,24.963517 L117.441747,25.2401092 L117.369593,25.5768302 L117.309464,25.8534224 L117.237309,26.1300147 L117.165155,26.4667357 L117.105026,26.7433279 L117.032872,27.0920746 L116.684125,27.1522034 L116.287275,27.2243579 L115.938528,27.2844866 L115.265086,27.4287956 L114.91634,27.5009501 L114.507464,27.5610789 L114.170743,27.6332334 L113.821997,27.7053879 L113.413121,27.7655166 L113.0764,27.8376711 L112.727653,27.9098256 L112.390932,27.9699543 L111.982057,28.0421088 L111.63331,28.1142633 L111.296589,28.1743921 L110.887714,28.2465466 L110.538967,28.3187011 L110.202246,28.3908556 L109.781345,28.4509843 L109.444624,28.5231388 L109.035748,28.5832676 L108.699027,28.6554221 L108.350281,28.7275766 L107.941405,28.7997311 L107.604684,28.8598598 L107.255937,28.9320143 L106.847062,29.0041688 L106.510341,29.0763233 L106.161594,29.136452 L105.752719,29.2086065 L105.415998,29.2687353 L105.007122,29.3408898 L104.658375,29.4130443 L104.526092,29.4130443 L104.598247,29.8219198 L104.658375,32.2150439 L104.73053,35.1613525 L104.802684,36.5924167 L105.271689,36.532288 L106.233749,36.387979 L106.642624,36.3278502 L107.604684,36.1835412 L108.073688,36.1113867 L108.554718,36.051258 L109.035748,35.9791035 L109.444624,35.9189748 L110.887714,35.7025113 L111.296589,35.6423825 L111.777619,35.570228 L112.246623,35.4980735 L112.655499,35.425919 L113.136529,35.3657903 L113.545404,35.2936358 L114.026434,35.233507 L114.507464,35.1613525 L114.91634,35.089198 L115.39737,35.0170435 L115.806245,34.9569148 L116.287275,34.8847603 L116.684125,34.8126058 L117.105026,34.7524771 L117.57403,34.6803226 L117.982906,34.6081681 L118.463936,34.5480393 L118.884837,34.4758848 L119.077249,34.4758848 L119.077249,34.8126058 L119.01712,35.2936358 L118.944966,35.7746658 L118.884837,36.2556957 L118.740528,37.2177557 L118.668374,37.6867599 L118.608245,38.1677899 L118.53609,38.6488199 L118.463936,39.0576954 L118.391781,39.6108798 L118.331653,40.0197553 L118.259498,40.4887596 L118.199369,40.9818153 L118.127215,41.3906908 L118.05506,41.859695 L117.982906,42.340725 L117.922777,42.7496005 L117.850623,43.2306304 L117.778468,43.4350682 L117.513902,43.5072227 L116.684125,43.5673514 L115.8784,43.6395059 L115.048623,43.7116604 L114.230872,43.7838149 L113.413121,43.8439437 L112.523216,43.9160982 L110.887714,44.0604072 L109.997808,44.1205359 L109.107903,44.1926904 L108.217997,44.2528191 L107.400246,44.3249736 L106.438186,44.3971281 L105.548281,44.4692826 L104.658375,44.5294114 L103.708341,44.6015659 L101.784221,44.7458749 L100.834187,44.8060036 L99.8721271,44.8781581 L98.9100672,44.9382869 L97.8878785,45.0104414 L96.9378443,45.0825959 L95.9156556,45.1547504 L94.9535956,45.2148791 L93.9314069,45.2870336 L93.1737847,45.2870336 L93.1737847,28.4509843 L93.2459392,12.9978962 L93.3060679,9.57055763 L93.5225314,9.51042888 L93.7870979,9.43827439 L94.3402824,9.29396539 L94.6048489,9.23383665 L94.8814411,9.16168215 L95.0858788,9.1015534 L95.9156556,8.88508991 L96.1802221,8.82496116 L96.7334065,8.68065217 L97.0099988,8.62052342 L97.2745653,8.54836893 L97.479003,8.47621443 L97.7555952,8.41608568 L98.0321875,8.34393118 L98.296754,8.27177669 L98.5733462,8.21164794 L98.7777839,8.13949344 L99.1265307,8.06733895 L99.4031229,7.99518445 L99.6676894,7.9350557 L99.8721271,7.86290121 L100.148719,7.80277246 L100.425312,7.73061796 L100.689878,7.65846346 L100.96647,7.58630897 L101.243063,7.52618022 L101.4475,7.45402572 L101.724093,7.38187123 L101.988659,7.30971673 L102.265251,7.24958798 L102.541844,7.17743348 L102.818436,7.11730474 L103.022874,7.04515024 L103.299466,6.97299574 L103.564032,6.90084125 L103.840624,6.8407125 L104.393809,6.69640351 L104.598247,6.62424901 L104.862813,6.56412026 L105.139405,6.49196576 L105.415998,6.43183702 L105.69259,6.35968252 L105.885002,6.28752802 L106.161594,6.21537353 L106.438186,6.15524478 L106.714779,6.08309028 L106.979345,6.01093578 L107.195809,5.95080704 L107.460375,5.87865254 L107.736967,5.80649804 L108.01356,5.7463693 L108.217997,5.6742148 L108.554718,5.6020603 L108.759156,5.54193155 L109.31234,5.39762256 L109.588933,5.33749381 L109.781345,5.26533932 L110.057937,5.19318482 L110.334529,5.13305607 L110.611121,5.06090158 L110.815559,4.98874708 L111.092151,4.91659258 L111.368744,4.85646383 L111.63331,4.78430934 L111.909902,4.71215484 L112.11434,4.65202609 L112.390932,4.5798716 L112.655499,4.5077171 L112.932091,4.44758835 L113.136529,4.37543385 L113.689713,4.23112486 L113.95428,4.17099611 L114.170743,4.09884162 L114.43531,4.03871287 L114.711902,3.96655837 L114.91634,3.89440388 L115.192932,3.82224938 L115.469524,3.76212063 L115.734091,3.68996613 L115.938528,3.61781164 L116.215121,3.54565714 L116.491713,3.48552839 L116.756279,3.4133739 L117.032872,3.35324515 L117.237309,3.28109065 L117.513902,3.20893615 L117.778468,3.13678166 L117.982906,3.07665291 L118.53609,2.93234392 L118.812683,2.87221517 L119.01712,2.80006067 L119.293713,2.72790618 L119.558279,2.66777743 L119.834871,2.59562293 L120.039309,2.52346843 L120.315901,2.46333969 L120.592494,2.39118519 L120.796931,2.31903069 L121.061498,2.2468762 L121.33809,2.18674745 L121.614682,2.11459295 L121.81912,2.0544642 L122.095712,1.98230971 L122.30015,1.91015521 L122.564716,1.83800071 L122.841309,1.77787197 L123.394493,1.63356297 L123.598931,1.57343423 Z" id="The" fill="#F9E403"></path>
                <path d="M33.5292505,48.142088 C33.9291654,45.7727798 34.3328535,43.3996983 34.7403142,41.0228443 C35.1477749,38.6459855 35.566554,36.2615856 35.9966514,33.8696456 C36.4116578,31.4852464 36.8398686,29.0933008 37.2812844,26.6938101 C37.7227001,24.2943194 38.169775,21.8948287 38.6225091,19.4953379 C37.784951,19.5783383 36.9511655,19.6632259 36.1211532,19.7500009 C35.291134,19.8367758 34.4611218,19.9216635 33.6311157,20.0046638 C32.7935576,20.0952106 31.9597724,20.1819856 31.1297598,20.2649859 C30.2997472,20.3479862 29.465962,20.4347612 28.6284039,20.525308 C29.5565092,18.0201803 30.6279799,15.2320909 31.842816,12.1610456 C34.8761358,11.6856747 37.9056818,11.2121913 40.931453,10.7405923 C43.9572264,10.2688469 46.9792265,9.80290716 49.9974533,9.34277579 C53.0005886,8.88219124 56.0037266,8.42756983 59.0068619,7.97891432 C62.0099972,7.52995208 65.0093606,7.0791053 68.0049521,6.6263712 C67.2353041,7.96193679 66.4732027,9.28995589 65.7186449,10.6104313 C64.9640872,11.9309066 64.2170759,13.2438355 63.4776111,14.5492179 C62.4438692,14.7680385 61.4120118,14.9830872 60.3820417,15.194364 C59.3520717,15.4056408 58.3239889,15.613143 57.2977907,15.8168734 C55.124667,16.2696075 53.0798171,16.6846147 51.1632436,17.0618922 C50.4312812,19.6273863 49.7050207,22.1891058 48.9844608,24.7470535 C48.2638595,27.3050011 47.5526892,29.8591755 46.8509514,32.4095781 C46.1567586,34.944889 45.4719983,37.4802 44.7966704,40.0155109 C44.1213121,42.5508219 43.4516434,45.0748145 42.7876628,47.5874887 C42.0104698,47.6403076 41.2351626,47.6893539 40.4617414,47.7346273 C39.6883209,47.7799007 38.9167863,47.8251741 38.1471383,47.8704475 L33.5292505,48.142088 Z M91.5697619,5.67562959 L91.7621739,5.60771948 L91.9659043,5.60771948 L91.9659043,5.9359517 L91.830084,6.70559967 L91.7621739,7.15833377 L91.7055821,7.54315775 L91.5697619,8.31280572 L91.5018518,8.76553981 L91.44526,9.1503638 L91.3773499,9.53518778 L91.3207582,9.93133012 L91.1849379,10.7009781 L91.1170278,11.1423938 L91.0604361,11.5385362 L90.9925259,11.9233601 L90.9246158,12.3760942 L90.8567057,12.7609182 L90.800114,13.1457422 L90.7322038,13.5305662 L90.6756121,13.9153902 L90.607702,14.3002142 L90.5397918,14.7529483 L90.4718817,15.1377722 L90.41529,15.5225962 L90.2794697,16.2922442 L90.2115596,16.6883865 L90.1549679,17.0732105 L90.0870577,17.4580345 L90.030466,17.8428585 L89.9625559,18.2276825 L89.8946458,18.6804166 L89.8267356,19.0652405 L89.7701439,19.4500645 L89.6343236,20.2197125 L89.5777319,20.5479447 L89.4419117,21.3175927 L89.3853199,21.7024167 L89.3174098,22.0872407 L89.2494997,22.483383 L89.1929079,22.868207 L89.0570877,23.6378549 L89.0004959,24.0226789 L88.8646757,24.7923269 L88.8080839,25.1884692 L88.7401738,25.5732932 L88.6722637,25.8902071 L88.6043536,26.2750311 L88.5477618,26.659855 L88.4798517,27.044679 L88.4232599,27.429503 L88.3553498,27.814327 L88.2874397,28.1425592 L88.2195296,28.5273832 L88.1629378,28.9122072 L88.0271176,29.6818552 L87.9592075,30.0100874 L87.9026157,30.3949114 L87.8347056,30.7797353 L87.7781138,31.1645593 L87.7102037,31.4927915 L87.5743835,32.2624395 L87.5177917,32.5793534 L87.3819715,33.3490013 L87.3140614,33.6772336 L87.2574696,34.0620576 L87.1895595,34.3902898 L87.1329678,34.7751138 L87.0650576,35.0920276 L86.9971475,35.4768516 L86.9292374,35.8050838 L86.8726456,36.1899078 L86.7368254,36.9595558 L86.6802337,37.2764697 L86.6123235,37.672612 L86.5444134,37.9895259 L86.4878217,38.3743498 L86.4199115,38.7025821 L86.3520014,39.087406 L86.2954097,39.47223 L86.2274996,39.7891439 L86.1595894,40.1173761 L86.0916793,40.5022001 L86.0350876,40.819114 L85.9671775,41.2152563 L85.9105857,41.6000803 L85.8426756,41.9169942 L85.7747655,42.2452264 L85.7068553,42.6300504 L85.6502636,42.9469642 L85.5144434,43.7166122 L85.4578516,44.0448444 L85.3899415,44.4296684 L85.3220314,44.7465823 L85.2654396,45.0748145 L85.1975295,45.4596385 L85.1296194,45.7765523 L85.0617093,46.1726947 L85.0051175,46.4896085 L84.9372074,46.8065224 L84.8806156,47.1913464 L84.8127055,47.5761704 L84.7447954,47.9044026 L84.6768853,48.0289045 L82.8093571,48.0968146 L78.8818888,48.1647247 L75.8598887,48.1647247 L75.8032969,48.0968146 L75.8032969,47.9723127 L75.8598887,47.5195786 L75.9277988,47.0668445 L75.9843906,46.6141104 L76.0523007,46.2292864 L76.1881209,45.3238182 L76.2447127,44.9389943 L76.3126228,44.4975785 L76.448443,43.5921103 L76.5050348,43.2072863 L76.5729449,42.7545522 L76.6295367,42.3018181 L76.6974468,41.9169942 L76.833267,41.011526 L76.8898588,40.5701102 L76.9577689,40.1739679 L77.025679,39.7325521 L77.0935891,39.279818 L77.1501809,38.8270839 L77.218091,38.3743498 L77.2746828,37.9216157 L77.3425929,37.5367918 L77.410503,37.095376 L77.4784131,36.6426419 L77.5350049,36.1899078 L77.6708251,35.2844396 L77.7274169,34.8317055 L77.795327,34.4468815 L77.8519187,33.9375557 L77.987739,33.0320875 L78.0443307,32.5793534 L78.1122408,32.1379376 L78.180151,31.6852035 L78.2367427,31.2324694 L77.987739,31.2324694 L77.5350049,31.3003796 L77.025679,31.3569713 L76.5729449,31.4248814 L76.0523007,31.4927915 L75.5995666,31.5493833 L75.0902407,31.6172934 L74.6375066,31.6852035 L74.1960909,31.7417953 L73.7320384,31.8097054 L73.2227126,31.8776155 L72.7699785,31.9342073 L71.8645103,32.0700275 L71.3551844,32.1379376 L70.9024503,32.1945294 L70.4497162,32.2624395 L70.0083005,32.3190313 L69.544248,32.3869414 L69.1028323,32.4548515 L68.6500982,32.5227616 L68.1973641,32.5793534 L68.0728622,32.5793534 L68.0728622,33.0999976 L68.0049521,33.6093235 L67.937042,34.1978778 L67.8804502,34.7751138 L67.74463,35.9295857 L67.6880382,36.4502299 L67.552218,37.6047019 L67.4956262,38.1819378 L67.4277161,38.7591738 L67.359806,39.3477281 L67.2918959,39.9249641 L67.2353041,40.43429 L67.167394,41.011526 L67.0994839,41.6000803 L67.0428921,42.1773163 L66.9070719,43.3317882 L66.8504802,43.8524324 L66.6467498,45.5841404 L66.590158,46.1726947 L66.5222479,46.7499307 L66.4656562,47.3271666 L66.3977461,47.9044026 L66.3298359,48.1647247 L62.1420455,48.1647247 L56.086727,48.0968146 L56.086727,47.0668445 L56.1546371,45.7199606 L56.2225472,44.2938482 L56.2904573,42.9469642 L56.3470491,41.6000803 L56.4149592,40.241878 L56.471551,38.9515858 L56.5394611,37.7292037 L56.6073712,36.4502299 L56.6752813,35.2165295 L56.7318731,34.0620576 L56.7997832,32.8396755 L56.8676933,31.6852035 L56.9356034,30.5194132 L56.9921952,29.421533 L57.0601053,28.2670611 L57.116697,27.1691809 L57.1846072,26.1392108 L57.2525173,25.052649 L57.3204274,24.0226789 L57.3770191,22.9361171 L57.4449293,21.906147 L57.5128394,20.8648586 L57.5694311,19.8348885 L57.6373413,18.8049184 L57.7052514,17.7862667 L57.7618431,17.6504465 L57.8976634,17.5825364 L58.0900754,17.5259446 L58.4748993,17.3901244 L58.6673113,17.3335326 L59.0521353,17.1977124 L59.2445473,17.1411206 L59.6293713,17.0053004 L59.8331016,16.9373903 L60.0141953,16.8807985 L60.2179256,16.8128884 L60.4103376,16.7562966 L60.9875736,16.5525663 L61.1799856,16.4959745 L61.7572215,16.2922442 L61.9496335,16.2356524 L62.1420455,16.1677423 L62.3457759,16.1111506 L62.5268695,16.0432404 L62.7305999,15.9753303 L62.9230119,15.9074202 L63.1154238,15.8508285 L63.5002478,15.7150082 L63.6926598,15.6584165 L64.0774838,15.5225962 L64.2698958,15.4660045 L64.6547198,15.3301842 L64.8471318,15.2735925 L65.0395438,15.2056824 L65.2432741,15.1377722 L65.4243677,15.0811805 L65.6280981,15.0132704 L65.8205101,14.9453603 L66.0129221,14.8887685 L66.590158,14.6850381 L66.78257,14.6284464 L66.974982,14.5605363 L67.167394,14.5039445 L67.4277161,14.4360344 L67.552218,14.3681243 L67.74463,14.3002142 L67.937042,14.2436224 L68.1973641,14.1757123 L68.5821881,14.0398921 L68.7859184,13.9833003 L68.9104203,13.9833003 L68.9104203,16.2356524 L68.8425102,18.7483267 L68.7859184,20.8648586 L68.7180083,22.9361171 L68.6500982,24.860237 L68.5708697,25.3695629 L68.7180083,25.3129711 L68.9670121,25.245061 L69.1594241,25.1884692 L69.9403904,24.9847389 L70.1893941,24.9281471 L70.3931245,24.860237 L70.6534466,24.7923269 L70.9024503,24.7357351 L71.4230945,24.5999149 L71.6834167,24.5433231 L71.9324204,24.475413 L72.1248324,24.4075029 L72.3851545,24.3509111 L72.9057987,24.2150909 L73.1548025,24.1584992 L73.4151246,24.090589 L73.6075366,24.0226789 L73.8678587,23.9660872 L74.1281808,23.898177 L74.3771845,23.8302669 L74.5809149,23.7623568 L74.8978287,23.7057651 L75.0902407,23.6378549 L75.3505628,23.5812632 L75.5995666,23.5133531 L76.1202108,23.3775328 L76.3126228,23.3209411 L77.0935891,23.1172107 L77.3425929,23.060619 L77.5350049,22.9927089 L77.795327,22.9361171 L78.0443307,22.868207 L78.5649749,22.7323867 L78.8252971,22.675795 L79.0743008,22.6078849 L79.2667128,22.5399748 L79.5270349,22.483383 L79.7194469,22.4154729 L79.8552671,22.4154729 L79.8552671,22.2230609 L79.9118589,21.8382369 L79.979769,21.5100047 L80.1155892,20.7403567 L80.172181,20.3555327 L80.2400911,20.0386189 L80.2966829,19.6537949 L80.364593,19.3255627 L80.5004132,18.5559147 L80.557005,18.1710907 L80.6249151,17.8428585 L80.6928252,17.4580345 L80.749417,17.1411206 L80.8173271,16.7562966 L80.8852372,16.3601543 L80.941829,16.0432404 L81.0097391,15.5905063 L81.0776492,15.2735925 L81.134241,14.8887685 L81.2021511,14.5605363 L81.2700612,14.1757123 L81.3266529,13.7908883 L81.3945631,13.4626561 L81.4624732,13.0778321 L81.5190649,12.6930081 L81.6548852,11.9233601 L81.7227953,11.6064463 L81.779387,11.2103039 L81.8472972,10.8933901 L81.9038889,10.5085661 L81.971799,10.1124238 L82.0397091,9.79550989 L82.1076193,9.4106859 L82.164211,9.02586192 L82.2321211,8.76553981 L82.3679414,8.70894805 L82.549035,8.64103794 L82.7527654,8.57312782 L82.9451773,8.50521771 L83.1375893,8.44862595 L83.5224133,8.31280572 L83.7148253,8.25621395 L84.0996493,8.12039372 L84.2920613,8.06380196 L84.4844733,7.99589185 L84.7447954,7.92798173 L84.9372074,7.86007162 L85.1296194,7.80347986 L85.3220314,7.73556974 L85.5144434,7.67897798 L85.6502636,7.61106786 L86.0350876,7.47524763 L86.2954097,7.41865587 L86.8726456,7.21492553 L87.0650576,7.15833377 L87.2574696,7.09042365 L87.4498816,7.03383189 L87.8347056,6.89801166 L88.0950277,6.83010154 L88.2874397,6.77350978 L88.4232599,6.70559967 L88.6722637,6.63768955 L88.8646757,6.58109779 L89.2494997,6.44527756 L89.4419117,6.3886858 L89.8267356,6.25286557 L90.030466,6.19627381 L90.2115596,6.12836369 L90.41529,6.06045358 L90.607702,6.00386181 L90.9925259,5.86804159 L91.1849379,5.81144982 L91.44526,5.74353971 L91.5697619,5.67562959 Z M117.783066,7.0791053 L118.043388,7.01119518 L118.224482,7.01119518 L118.224482,7.20360717 L118.16789,7.39601917 L118.09998,7.65634127 L118.043388,7.84875326 L117.907568,8.23357725 L117.839658,8.49389935 L117.783066,8.75422146 L117.715156,8.9353151 L117.658564,9.13904544 L117.590654,9.39936755 L117.522744,9.58046119 L117.454834,9.78419153 L117.398242,10.0331953 L117.330332,10.2256073 L117.262422,10.4293376 L117.194512,10.6783414 L117.13792,10.8707534 L117.07001,11.1310755 L117.013418,11.3234875 L116.945508,11.5158995 L116.877598,11.7762216 L116.809688,11.9686336 L116.753096,12.2289557 L116.617276,12.6137796 L116.560684,12.8741018 L116.492774,13.1231055 L116.424864,13.3268359 L116.368272,13.5192478 L116.300362,13.7682516 L116.232452,13.9606636 L116.164542,14.2209857 L116.10795,14.4133977 L116.04004,14.6058097 L115.983448,14.8661318 L115.915538,15.0585438 L115.847628,15.3188659 L115.779718,15.3754576 L115.723126,15.4433678 L115.202482,15.579188 L115.01007,15.6357798 L114.761066,15.7036899 L114.240422,15.8395101 L114.04801,15.8961019 L113.787688,15.964012 L113.595276,16.0206037 L113.346272,16.0885139 L113.142542,16.156424 L112.825628,16.2243341 L112.633216,16.2809258 L112.440804,16.348836 L112.180482,16.4167461 L111.92016,16.4733378 L111.671156,16.541248 L111.478744,16.6091581 L111.218422,16.6657498 L110.9581,16.7336599 L110.765688,16.8015701 L110.516684,16.8581618 L110.324272,16.9260719 L109.803628,17.0618922 L109.554624,17.1184839 L109.350894,17.186394 L109.090572,17.2429858 L108.841568,17.3108959 L108.649156,17.378806 L108.388834,17.4467161 L108.128512,17.5033079 L107.879508,17.571218 L107.675777,17.6391281 L107.426774,17.6957199 L107.234362,17.76363 L106.97404,17.8315401 L106.713718,17.8881319 L106.453395,17.956042 L106.204392,18.0239521 L106.01198,18.0918622 L105.751658,18.148454 L105.491335,18.2163641 L105.298923,18.2842742 L105.038601,18.340866 L104.778279,18.4087761 L104.529275,18.4766862 L104.336863,18.533278 L103.816219,18.6690982 L103.623807,18.7370083 L103.374804,18.7936001 L103.114481,18.8615102 L102.854159,18.918102 L102.661747,18.9860121 L102.141103,19.1218323 L101.960009,19.1784241 L101.439365,19.3142443 L101.179043,19.3708361 L100.986631,19.4387462 L100.726309,19.5066563 L100.477305,19.5632481 L100.216983,19.6311582 L100.149073,20.140484 L100.092481,20.6045365 L100.024571,21.1138623 L99.9566611,21.5665964 L99.9000693,22.0759223 L99.8321592,22.5965665 L99.7642491,23.0379823 L99.7076573,23.5586265 L99.6397472,24.0792707 L99.5718371,24.5320048 L99.503927,25.1092408 L99.4473352,25.5506565 L99.3794251,26.0713007 L99.3001966,26.1958026 L100.092481,26.1278925 L101.179043,26.0713007 L102.209013,26.0033906 L103.374804,25.9467988 L104.461365,25.8788887 L105.559246,25.8109786 L106.657126,25.7543869 L108.96607,25.6185666 L110.13186,25.5506565 L111.275014,25.4940647 L112.497396,25.4261546 L112.825628,25.4261546 L112.825628,25.7543869 L112.757718,26.0713007 L112.701126,26.3203045 L112.565306,26.8409487 L112.497396,27.1578626 L112.440804,27.4181847 L112.372894,27.6785068 L112.304984,27.9954206 L112.248392,28.2557427 L112.180482,28.5160648 L112.112572,28.8329787 L112.05598,29.0933008 L111.98807,29.3536229 L111.92016,29.6705368 L111.863568,29.9308589 L111.795658,30.191181 L111.727748,30.5080949 L111.671156,30.768417 L111.603246,31.0966492 L111.275014,31.153241 L110.901508,31.2211511 L110.573276,31.2777428 L109.939448,31.4135631 L109.611216,31.4814732 L109.226392,31.538065 L108.909478,31.6059751 L108.581246,31.6738852 L108.196422,31.7304769 L107.879508,31.7983871 L107.551276,31.8662972 L107.234362,31.9228889 L106.849538,31.9907991 L106.521306,32.0587092 L106.204392,32.1153009 L105.819568,32.183211 L105.491335,32.2511212 L105.174422,32.3190313 L104.778279,32.375623 L104.461365,32.4435332 L104.076541,32.5001249 L103.759628,32.568035 L103.431395,32.6359451 L103.046571,32.7038553 L102.729657,32.760447 L102.401425,32.8283571 L102.016601,32.8962672 L101.699687,32.9641774 L101.371455,33.0207691 L100.986631,33.0886792 L100.669717,33.145271 L100.284893,33.2131811 L99.9566611,33.2810912 L99.8321592,33.2810912 L99.9000693,33.6659152 L99.9566611,35.9182674 L100.024571,38.6912637 L100.092481,40.0381476 L100.533897,39.9815559 L101.439365,39.8457357 L101.824189,39.7891439 L102.729657,39.6533237 L103.171073,39.5854136 L103.623807,39.5288218 L104.076541,39.4609117 L104.461365,39.4043199 L105.819568,39.2005896 L106.204392,39.1439978 L106.657126,39.0760877 L107.098541,39.0081776 L107.483365,38.9402675 L107.9361,38.8836757 L108.320924,38.8157656 L108.773658,38.7591738 L109.226392,38.6912637 L109.611216,38.6233536 L110.06395,38.5554435 L110.448774,38.4988517 L110.901508,38.4309416 L111.275014,38.3630315 L111.671156,38.3064397 L112.112572,38.2385296 L112.497396,38.1706195 L112.95013,38.1140277 L113.346272,38.0461176 L113.527366,38.0461176 L113.527366,38.3630315 L113.470774,38.8157656 L113.402864,39.2684997 L113.346272,39.7212338 L113.210452,40.626702 L113.142542,41.0681177 L113.08595,41.5208518 L113.01804,41.9735859 L112.95013,42.3584099 L112.88222,42.8790541 L112.825628,43.2638781 L112.757718,43.7052938 L112.701126,44.1693463 L112.633216,44.5541703 L112.565306,44.995586 L112.497396,45.4483201 L112.440804,45.8331441 L112.372894,46.2858782 L112.304984,46.4782902 L112.05598,46.5462003 L111.275014,46.6027921 L110.516684,46.6707022 L109.735718,46.7386123 L108.96607,46.8065224 L108.196422,46.8631142 L107.358864,46.9310243 L105.819568,47.0668445 L104.98201,47.1234363 L104.144451,47.1913464 L103.306893,47.2479382 L102.537245,47.3158483 L101.631777,47.3837584 L100.794219,47.4516685 L99.9566611,47.5082603 L99.0625112,47.5761704 L97.2515749,47.7119906 L96.357425,47.7685824 L95.4519568,47.8364925 L94.5464886,47.8930843 L93.5844287,47.9609944 L92.6902788,48.0289045 L91.7282189,48.0968146 L90.8227507,48.1534064 L89.8606907,48.2213165 L89.1476345,48.2213165 L89.1476345,32.375623 L89.2155446,17.8315401 L89.2721364,14.6058097 L89.4758667,14.5492179 L89.7248705,14.4813078 L90.2455147,14.3454876 L90.4945184,14.2888958 L90.7548405,14.2209857 L90.9472525,14.1643939 L91.7282189,13.9606636 L91.9772226,13.9040718 L92.4978668,13.7682516 L92.7581889,13.7116598 L93.0071927,13.6437497 L93.1996047,13.5758396 L93.4599268,13.5192478 L93.7202489,13.4513377 L93.9692526,13.3834276 L94.2295747,13.3268359 L94.4219867,13.2589257 L94.750219,13.1910156 L95.0105411,13.1231055 L95.2595448,13.0665137 L95.4519568,12.9986036 L95.7122789,12.9420119 L95.972601,12.8741018 L96.2216048,12.8061916 L96.4819269,12.7382815 L96.742249,12.6816898 L96.934661,12.6137796 L97.1949831,12.5458695 L97.4439868,12.4779594 L97.7043089,12.4213677 L97.9646311,12.3534575 L98.2249532,12.2968658 L98.4173652,12.2289557 L98.6776873,12.1610456 L98.926691,12.0931354 L99.1870131,12.0365437 L99.7076573,11.9007234 L99.9000693,11.8328133 L100.149073,11.7762216 L100.409395,11.7083115 L100.669717,11.6517197 L100.930039,11.5838096 L101.111133,11.5158995 L101.371455,11.4479893 L101.631777,11.3913976 L101.892099,11.3234875 L102.141103,11.2555774 L102.344833,11.1989856 L102.593837,11.1310755 L102.854159,11.0631654 L103.114481,11.0065736 L103.306893,10.9386635 L103.623807,10.8707534 L103.816219,10.8141616 L104.336863,10.6783414 L104.597186,10.6217496 L104.778279,10.5538395 L105.038601,10.4859294 L105.298923,10.4293376 L105.559246,10.3614275 L105.751658,10.2935174 L106.01198,10.2256073 L106.272302,10.1690155 L106.521306,10.1011054 L106.781628,10.0331953 L106.97404,9.97660353 L107.234362,9.90869341 L107.483365,9.8407833 L107.743688,9.78419153 L107.9361,9.71628142 L108.456744,9.58046119 L108.705748,9.52386943 L108.909478,9.45595931 L109.158482,9.39936755 L109.418804,9.33145744 L109.611216,9.26354732 L109.871538,9.19563721 L110.13186,9.13904544 L110.380864,9.07113533 L110.573276,9.00322522 L110.833598,8.9353151 L111.09392,8.87872334 L111.342924,8.81081322 L111.603246,8.75422146 L111.795658,8.68631135 L112.05598,8.61840123 L112.304984,8.55049112 L112.497396,8.49389935 L113.01804,8.35807913 L113.278362,8.30148736 L113.470774,8.23357725 L113.731096,8.16566713 L113.9801,8.10907537 L114.240422,8.04116526 L114.432834,7.97325514 L114.693156,7.91666338 L114.953478,7.84875326 L115.14589,7.78084315 L115.394894,7.71293304 L115.655216,7.65634127 L115.915538,7.58843116 L116.10795,7.5318394 L116.368272,7.46392928 L116.560684,7.39601917 L116.809688,7.32810905 L117.07001,7.27151729 L117.590654,7.13569706 L117.783066,7.0791053 Z" id="The-Copy-2" fill="#E42626"></path>
                <path d="M6.93819622,40.2630999 L24.0069791,34.4843736 L17.66375,75.4999607 L36.7974248,72.3803398 L30.2016549,88.5875131 L2.4667396,88.5875131 L6.93819622,40.2630999 Z M61.8286686,34.4843736 C70.0585257,32.7116378 76.4166102,34.0783289 80.9029221,38.5844468 C85.3991388,43.1202753 86.8747678,49.6516733 85.3298127,58.178637 C84.5771411,62.3084209 83.2253054,66.23023 81.2743056,69.9440644 C79.3233058,73.6578988 77.025679,76.8963624 74.3814289,79.6594552 C71.8164061,82.333416 68.9988461,84.4354463 65.9287418,85.965546 C62.8586375,87.4956458 59.7093078,88.275551 56.4807471,88.3052617 C53.2422835,88.3349724 50.23903,87.6912409 47.4709849,86.3740678 C44.7029406,85.0568947 42.2592376,83.3237721 40.1398758,81.1746997 C38.0007071,79.035531 36.2750122,76.5621173 34.9627906,73.7544585 C33.650569,70.9467997 32.9895067,67.8940278 32.979603,64.5961429 C32.959796,61.3081609 33.6753282,58.0820774 35.1261993,54.9178904 C36.5770705,51.7537035 38.5850168,48.8296791 41.1500387,46.1458136 C43.7942888,43.3827208 46.9015306,40.9637779 50.4717631,38.8889812 C54.0420073,36.8141845 57.8276431,35.3459832 61.8286686,34.4843736 Z M60.7145183,50.5132828 C57.5156684,51.0383153 54.7228649,52.543655 52.3361079,55.0293055 C49.949351,57.5151264 48.6668395,60.2584115 48.4885755,63.2591625 C48.3103114,66.2599407 49.1892516,68.7432574 51.1253979,70.7091143 C53.0615641,72.6749713 55.4953642,73.5489591 58.4267963,73.3310814 C61.3384697,73.1231067 63.9876722,71.7737462 66.374402,69.2830019 C68.7612296,66.7922576 70.1823915,63.897942 70.6378838,60.6000571 C71.083544,57.3021721 70.3383,54.6703003 68.4021555,52.7044451 C66.4660111,50.73859 63.9034653,50.0082014 60.7145183,50.5132828 Z M128.915373,34.4843736 L129.257046,34.3952416 L129.583863,34.3952416 L129.583863,34.5735056 L129.509587,34.7369143 L129.420455,34.9151784 L129.346178,35.0785871 L129.257046,35.3311278 L129.167914,35.4945365 L129.078782,35.6728006 L129.004505,35.8362093 L128.915373,36.08875 L128.826241,36.2670141 L128.737109,36.4304228 L128.662833,36.5938315 L128.5737,36.7720956 L128.499424,37.0246363 L128.32116,37.3514537 L128.232028,37.5297178 L128.157751,37.6931265 L128.068619,37.9456672 L127.979487,38.1239313 L127.890355,38.28734 L127.816078,38.4507487 L127.726946,38.6290128 L127.65267,38.8815535 L127.563538,39.0449622 L127.474405,39.2232263 L127.385273,39.386635 L127.310997,39.5500437 L127.221865,39.8025844 L127.132733,39.9808485 L127.058456,40.1442572 L126.969324,40.3076659 L126.880192,40.48593 L126.805915,40.7384707 L126.716783,40.9167348 L126.627651,41.0801435 L126.553375,41.2435522 L126.464243,41.4960929 L126.375111,41.674357 L126.285978,41.8377657 L126.211702,42.0011744 L126.12257,42.1794385 L126.048293,42.3428472 L125.959161,42.5953879 L125.870029,42.7587966 L125.780897,42.9370607 L125.70662,43.1896014 L125.617488,43.3530101 L125.528356,43.5312742 L125.439224,43.6946829 L125.364948,43.8729469 L125.275816,44.0363557 L125.201539,44.2888964 L125.112407,44.4523051 L125.023275,44.6305692 L124.934143,44.8831099 L124.859866,45.0465186 L124.770734,45.2247827 L124.681602,45.3881914 L124.59247,45.6407321 L124.518193,45.8041408 L124.429061,45.8932729 L124.354785,45.9824049 L123.92398,46.0566816 L123.50803,46.1458136 L123.077226,46.2349456 L122.661276,46.3092223 L122.141339,46.3983543 L121.72539,46.4874864 L121.294585,46.561763 L120.462686,46.7400271 L120.031881,46.8291591 L119.615932,46.9034358 L119.185127,46.9925678 L118.769178,47.0668445 L118.338373,47.1559766 L117.922423,47.2451086 L117.491619,47.3342406 L117.075669,47.4085173 L116.65972,47.4976493 L116.154638,47.5867813 L115.723833,47.661058 L115.307884,47.7501901 L114.877079,47.8393221 L114.46113,47.9135988 L113.941193,48.0027308 L113.109294,48.1809948 L112.678489,48.2552715 L112.26254,48.3444036 L111.757458,48.4186802 L111.326654,48.5078123 L110.999836,48.5969443 L110.479899,48.6860763 L110.06395,48.760353 L109.633145,48.849485 L109.217196,48.9386171 L108.786391,49.0277491 L108.281309,49.1020258 L107.86536,49.1911578 L107.434555,49.2654345 L107.018606,49.3545665 L106.587801,49.4436985 L106.171851,49.5328306 L105.66677,49.6071073 L105.25082,49.6962393 L104.820016,49.7853713 L104.404066,49.859648 L104.13667,49.859648 L104.13667,50.5429935 L104.062393,51.3897478 L103.973261,52.14737 L103.884129,52.9941242 L103.794997,53.7517464 L103.720721,54.5093687 L103.631589,55.3561229 L103.557312,56.1137451 L103.46818,56.8713673 L103.364193,57.3021721 L103.720721,57.2130401 L104.314934,57.1387634 L104.983424,57.0496314 L105.66677,56.9604994 L106.260983,56.8713673 L106.929474,56.7970907 L107.612819,56.7079586 L108.207033,56.6188266 L108.875523,56.5445499 L109.558868,56.4554179 L110.153082,56.3662859 L110.821572,56.2920092 L111.415786,56.2028771 L112.084276,56.1137451 L112.767621,56.0246131 L113.361835,55.9503364 L114.030325,55.8612044 L114.698815,55.7869277 L115.307884,55.6977957 L115.887242,55.6086636 L116.570588,55.5195316 L117.239078,55.5195316 L117.32821,57.3764488 L117.417342,60.0801203 L117.417342,63.3780052 L117.075669,63.4671372 L116.733996,63.5414139 L116.318047,63.6305459 L115.976374,63.719678 L115.634701,63.7939547 L115.218752,63.8830867 L114.535406,64.0613507 L114.193734,64.1356274 L113.866916,64.2247595 L113.450967,64.2990361 L113.020162,64.3881682 L112.678489,64.4773002 L112.351672,64.5664322 L112.009999,64.6407089 L111.579194,64.7298409 L111.252377,64.818973 L110.910704,64.8932496 L110.569031,64.9823817 L110.153082,65.0715137 L109.811409,65.1457904 L109.380604,65.2349224 L109.053787,65.3240544 L108.712114,65.4131865 L108.281309,65.4874631 L107.939637,65.5765952 L107.523687,65.6508719 L107.182014,65.7400039 L106.855197,65.8291359 L106.424392,65.9182679 L106.082719,65.9925446 L105.755902,66.0816767 L105.414229,66.1708087 L104.983424,66.2599407 L104.641752,66.3342174 L104.225802,66.4233494 L103.884129,66.4976261 L103.557312,66.5867581 L103.126507,66.6758902 L102.784834,66.7650222 L102.368885,66.8392989 L102.116344,66.8392989 L102.116344,67.1809716 L102.027212,67.5226444 L101.952936,67.8494618 L101.774671,68.5328074 L101.685539,68.7853481 L101.611263,69.1270209 L101.522131,69.4538383 L101.343867,70.1371838 L101.26959,70.4788566 L101.180458,70.805674 L101.106181,71.1473468 L100.838785,72.1723651 L100.764508,72.4991825 L100.497112,73.5242008 L100.422836,73.8510182 L100.333704,74.192691 L100.259427,74.5343637 L100.170295,74.8760365 L100.081163,75.2028539 L99.9920309,75.5445267 L99.9177543,75.8861995 L99.8286222,76.2130169 L99.7394902,76.5546897 L99.6652135,76.9854944 L99.5760815,77.3271672 L99.4869495,77.6539846 L99.4126728,77.9956574 L99.2344087,78.6790029 L99.160132,79.0949524 L99.071,79.4366252 L98.981868,79.7634426 L98.892736,80.1051153 L98.8184593,80.4467881 L98.7293272,80.7884609 L98.6550506,81.2044103 L98.4767865,81.8877559 L98.3876545,82.2145733 L98.3133778,82.6453781 L98.2242458,82.9870508 L98.1351137,83.4030003 L98.0459817,83.7446731 L97.971705,84.0863458 L97.882573,84.4131632 L97.8082963,84.843968 L97.7191643,85.1707855 L97.6300323,85.5124582 L97.5409002,85.943263 L97.4666235,86.2849358 L97.3774915,86.7008852 L97.2883595,87.042558 L97.1992275,87.3693754 L97.1249508,87.8001802 L97.0358188,88.1269976 L96.9615421,88.5578024 L96.87241,88.6469345 L96.6198693,88.6469345 L96.1890645,88.5578024 L95.8622471,88.4686704 L95.5205743,88.3943937 L94.8372288,88.2161297 L94.5104114,88.1269976 L94.0796066,88.052721 L93.7379338,87.9635889 L93.396261,87.8893122 L93.0694436,87.8001802 L92.6386388,87.7110482 L92.2969661,87.6219162 L91.9701486,87.5476395 L91.6284759,87.4585075 L91.2125264,87.3693754 L90.8708537,87.2950987 L90.4400489,87.2059667 L90.0983761,87.1168347 L89.6824266,87.042558 L88.9990811,86.864294 L88.5831317,86.7900173 L88.1523269,86.7008852 L87.8255094,86.6117532 L87.3947047,86.5226212 L87.0678872,86.4483445 L86.6370824,86.3592125 L86.2954097,86.2849358 L85.4635108,86.1066717 L85.032706,86.0175397 L84.7801652,85.943263 L84.7801652,81.6352151 L84.8544419,75.9753315 L84.943574,70.805674 L85.032706,66.1708087 L85.121838,61.8479054 L85.1961147,57.8963856 L85.2852467,54.1676959 L85.3743787,50.6321255 L85.4635108,47.2451086 L85.5377875,43.8729469 L85.7903282,43.7838149 L86.132001,43.6946829 L86.5479504,43.6055509 L86.9787552,43.5312742 L87.3947047,43.4421422 L87.7363774,43.3530101 L88.1523269,43.2638781 L88.4939996,43.1896014 L88.9248044,43.1004694 L89.3407539,43.0261927 L89.6824266,42.9370607 L90.1875081,42.8479286 L90.5291809,42.7587966 L90.9451303,42.6845199 L91.3759351,42.5953879 L91.7176079,42.5062559 L92.1335573,42.4319792 L92.5643621,42.3428472 L92.8911796,42.2537151 L93.3219844,42.1794385 L93.6636571,42.0903064 L94.0796066,42.0011744 L94.5104114,41.9268977 L94.8372288,41.8377657 L95.2680336,41.7486337 L95.683983,41.674357 L96.1147878,41.585225 L96.5307373,41.4960929 L96.87241,41.4218162 L97.2883595,41.3326842 L97.6300323,41.2435522 L98.0459817,41.1544202 L98.4767865,41.0801435 L98.892736,40.9910114 L99.2344087,40.9167348 L99.6652135,40.8276027 L100.081163,40.7384707 L100.422836,40.6493387 L100.838785,40.575062 L101.26959,40.48593 L101.611263,40.3967979 L102.027212,40.3076659 L102.368885,40.2333892 L102.784834,40.1442572 L103.215639,40.0699805 L103.557312,39.9808485 L103.973261,39.8917165 L104.404066,39.8025844 L104.820016,39.7283078 L105.161688,39.6391757 L105.577638,39.5500437 L106.008443,39.4609117 L106.33526,39.386635 L106.766065,39.297503 L107.092882,39.2232263 L107.523687,39.1340942 L107.939637,39.0449622 L108.281309,38.9558302 L108.712114,38.8815535 L109.128064,38.7924215 L109.469736,38.7181448 L109.885686,38.6290128 L110.316491,38.5398807 L110.658163,38.4507487 L111.074113,38.376472 L111.504918,38.28734 L111.84659,38.198208 L112.173408,38.1239313 L112.678489,38.0347993 L113.020162,37.9456672 L113.450967,37.8713906 L113.777784,37.7822585 L114.193734,37.6931265 L114.535406,37.6188498 L114.966211,37.5297178 L115.382161,37.4405858 L115.723833,37.3514537 L116.154638,37.277177 L116.570588,37.188045 L116.91226,37.1137683 L117.32821,37.0246363 L117.669883,36.9355043 L118.085832,36.8463723 L118.516637,36.7720956 L118.843454,36.6829635 L119.274259,36.5938315 L119.615932,36.5046995 L120.031881,36.4304228 L120.462686,36.3412908 L120.789504,36.2670141 L121.220308,36.1778821 L121.561981,36.08875 L121.977931,35.999618 L122.319603,35.9253413 L122.750408,35.8362093 L123.077226,35.7470773 L123.50803,35.6728006 L123.92398,35.5836686 L124.265653,35.4945365 L124.681602,35.4202598 L125.023275,35.3311278 L125.439224,35.2419958 L125.780897,35.1528638 L126.211702,35.0785871 L126.553375,34.9894551 L126.969324,34.9151784 L127.310997,34.8260463 L127.726946,34.7369143 L128.068619,34.6477823 L128.499424,34.5735056 L128.915373,34.4843736 Z M127.117877,88.4983811 C127.642766,85.3886641 128.172606,82.2739946 128.707399,79.1543737 C129.242191,76.0347465 129.791838,72.9052217 130.356341,69.7658004 C130.901037,66.6362765 131.463064,63.4968479 132.042422,60.3475163 C132.62178,57.1981848 133.208566,54.0488532 133.802779,50.8995216 C132.703484,51.0084596 131.609141,51.1198746 130.51975,51.2337667 C129.43035,51.3476589 128.340958,51.4590739 127.251575,51.5680118 C126.15228,51.6868545 125.057937,51.8007466 123.968546,51.9096846 C122.879154,52.0186225 121.784811,52.1325146 120.685516,52.2513573 C121.903654,48.9633772 123.30996,45.3040099 124.904432,41.2732629 C128.885664,40.6493387 132.861943,40.0278916 136.833268,39.408918 C140.804596,38.7897522 144.770971,38.1782062 148.732394,37.5742838 C152.674009,36.9697666 156.615627,36.373076 160.557242,35.7842156 C164.498857,35.1949527 168.435522,34.6032163 172.367236,34.0090028 C171.357073,35.7619326 170.356815,37.5049577 169.366458,39.2380816 C168.3761,40.9712055 167.395648,42.6944247 166.425101,44.4077391 C165.068314,44.6949411 163.714002,44.9771925 162.362166,45.2544933 C161.01033,45.5317942 159.660972,45.8041408 158.314086,46.0715369 C155.461862,46.6657504 152.777996,47.2104473 150.262493,47.705624 C149.301793,51.0728351 148.348576,54.435092 147.402841,57.7923983 C146.457052,61.1497046 145.523641,64.5020585 144.60261,67.8494618 C143.691482,71.1770574 142.792734,74.5046531 141.906366,77.8322487 C141.019958,81.1598443 140.141018,84.4725846 139.269544,87.7704695 C138.249478,87.8397943 137.231887,87.9041676 136.216772,87.9635889 C135.201657,88.0230103 134.189018,88.0824316 133.178855,88.141853 L127.117877,88.4983811 Z" id="Loft-Copy-3" fill="#F9EB03"></path>
                <path d="M4.54294988,45.4992527 L20.7989336,39.9957038 L14.757763,79.0581677 L32.9803104,76.0871002 L26.6986248,91.5225034 L0.284419772,91.5225034 L4.54294988,45.4992527 Z M56.8195903,39.9957038 C64.6575494,38.3073841 70.7128679,39.6089946 74.985546,43.9005354 C79.2676571,48.2203721 80.6730181,54.4407511 79.2016323,62.561669 C78.4848021,66.4947965 77.1973395,70.2298528 75.3392445,73.766838 C73.4811495,77.3038231 71.2929335,80.3880742 68.7746001,83.0195911 C66.3317212,85.5662204 63.6483308,87.568154 60.7244219,89.0253919 C57.800513,90.4826298 54.8011513,91.2253966 51.7263317,91.2536925 C48.6420806,91.2819884 45.7818392,90.6689108 43.1456057,89.4144602 C40.5093731,88.1600097 38.1820369,86.5094167 36.1635971,84.462681 C34.1262936,82.4253776 32.4827747,80.0697455 31.2330398,77.3957847 C29.9833049,74.721824 29.3537217,71.8144222 29.3442897,68.6735794 C29.3254259,65.5421679 30.0068851,62.4697074 31.3886671,59.4561961 C32.7704492,56.4426847 34.682779,53.6578996 37.125657,51.1018372 C39.6439904,48.4703202 42.6032683,46.1665651 46.0034897,44.1905682 C49.4037224,42.2145714 53.0090898,40.8162844 56.8195903,39.9957038 Z M55.7584947,55.2613317 C52.711971,55.7613626 50.0521581,57.1950194 47.7790563,59.5623056 C45.5059544,61.9297542 44.2845149,64.5424066 44.1147397,67.4002647 C43.9449644,70.2581487 44.7820503,72.6232122 46.6259991,74.4954569 C48.4699669,76.3677016 50.7878718,77.200071 53.5797119,76.9925684 C56.3527342,76.7944973 58.8757841,75.5093921 61.1488601,73.1372546 C63.4220293,70.7651172 64.7755168,68.0086262 65.209319,64.8677833 C65.6337573,61.7269405 64.9240011,59.2203959 63.080054,57.3481529 C61.2361069,55.47591 58.7955871,54.7803017 55.7584947,55.2613317 Z M120.71169,39.9957038 L121.037093,39.9108162 L121.348347,39.9108162 L121.348347,40.0805915 L121.277608,40.2362188 L121.19272,40.4059941 L121.12198,40.5616215 L121.037093,40.8021364 L120.952205,40.9577638 L120.867317,41.1275391 L120.796578,41.2831664 L120.71169,41.5236814 L120.626802,41.6934567 L120.541915,41.849084 L120.471175,42.0047114 L120.386287,42.1744867 L120.315548,42.4150017 L120.145772,42.7262564 L120.060885,42.8960316 L119.990145,43.051659 L119.905257,43.292174 L119.82037,43.4619493 L119.735482,43.6175766 L119.664742,43.773204 L119.579855,43.9429792 L119.509115,44.1834942 L119.424227,44.3391216 L119.33934,44.5088969 L119.254452,44.6645242 L119.183712,44.8201516 L119.098825,45.0606666 L119.013937,45.2304418 L118.943197,45.3860692 L118.85831,45.5416965 L118.773422,45.7114718 L118.702682,45.9519868 L118.617795,46.1217621 L118.532907,46.2773894 L118.462167,46.4330168 L118.37728,46.6735318 L118.292392,46.8433071 L118.207504,46.9989344 L118.136765,47.1545618 L118.051877,47.324337 L117.981137,47.4799644 L117.89625,47.7204794 L117.811362,47.8761067 L117.726474,48.045882 L117.655735,48.286397 L117.570847,48.4420243 L117.485959,48.6117996 L117.401072,48.767427 L117.330332,48.9372023 L117.245444,49.0928296 L117.174705,49.3333446 L117.089817,49.488972 L117.004929,49.6587472 L116.920042,49.8992622 L116.849302,50.0548896 L116.764414,50.2246649 L116.679527,50.3802922 L116.594639,50.6208072 L116.523899,50.7764345 L116.439012,50.8613222 L116.368272,50.9462098 L115.957982,51.0169495 L115.56184,51.1018372 L115.151549,51.1867248 L114.755407,51.2574645 L114.260229,51.3423522 L113.864087,51.4272398 L113.453796,51.4979795 L112.661512,51.6677548 L112.251221,51.7526424 L111.855079,51.8233821 L111.444789,51.9082698 L111.048646,51.9790095 L110.638356,52.0638971 L110.242214,52.1487848 L109.831924,52.2336724 L109.435781,52.3044121 L109.039639,52.3892998 L108.558609,52.4741874 L108.148319,52.5449271 L107.752176,52.6298148 L107.341886,52.7147024 L106.945744,52.7854421 L106.450566,52.8703297 L105.658281,53.040105 L105.247991,53.1108447 L104.851849,53.1957324 L104.370819,53.2664721 L103.960528,53.3513597 L103.649274,53.4362474 L103.154096,53.521135 L102.757953,53.5918747 L102.347663,53.6767624 L101.951521,53.76165 L101.54123,53.8465376 L101.0602,53.9172773 L100.664058,54.002165 L100.253768,54.0729047 L99.8576255,54.1577923 L99.4473352,54.24268 L99.0511929,54.3275676 L98.5701629,54.3983073 L98.1740206,54.483195 L97.7637303,54.5680826 L97.367588,54.6388223 L97.112925,54.6388223 L97.112925,55.2896276 L97.0421853,56.0960602 L96.9572977,56.8176052 L96.87241,57.6240378 L96.7875224,58.3455827 L96.7167827,59.0671277 L96.6318951,59.8735603 L96.5611554,60.5951053 L96.4762677,61.3166503 L96.3772321,61.7269405 L96.7167827,61.6420529 L97.2827003,61.5713132 L97.9193576,61.4864256 L98.5701629,61.4015379 L99.1360805,61.3166503 L99.7727379,61.2459106 L100.423543,61.1610229 L100.989461,61.0761353 L101.626118,61.0053956 L102.276923,60.9205079 L102.842841,60.8356203 L103.479498,60.7648806 L104.045416,60.6799929 L104.682073,60.5951053 L105.332879,60.5102177 L105.898796,60.439478 L106.535453,60.3545903 L107.172111,60.2838506 L107.752176,60.198963 L108.303946,60.1140753 L108.954751,60.0291877 L109.591409,60.0291877 L109.676296,61.7976802 L109.761184,64.3726054 L109.761184,67.5134482 L109.435781,67.5983359 L109.110379,67.6690756 L108.714236,67.7539632 L108.388834,67.8388509 L108.063431,67.9095906 L107.667289,67.9944782 L107.016483,68.1642535 L106.691081,68.2349932 L106.379826,68.3198808 L105.983684,68.3906206 L105.573393,68.4755082 L105.247991,68.5603958 L104.936736,68.6452835 L104.611334,68.7160232 L104.201043,68.8009108 L103.889789,68.8857985 L103.564386,68.9565382 L103.238983,69.0414258 L102.842841,69.1263135 L102.517438,69.1970532 L102.107148,69.2819408 L101.795893,69.3668285 L101.470491,69.4517161 L101.0602,69.5224558 L100.734798,69.6073434 L100.338655,69.6780831 L100.013253,69.7629708 L99.7019982,69.8478584 L99.2917079,69.9327461 L98.9663052,70.0034858 L98.6550506,70.0883734 L98.3296479,70.1732611 L97.9193576,70.2581487 L97.593955,70.3288884 L97.1978127,70.4137761 L96.87241,70.4845158 L96.5611554,70.5694034 L96.1508651,70.654291 L95.8254624,70.7391787 L95.4293201,70.8099184 L95.1888051,70.8099184 L95.1888051,71.135321 L95.1039175,71.4607237 L95.0331778,71.7719783 L94.8634025,72.4227836 L94.7785148,72.6632986 L94.7077751,72.9887012 L94.6228875,73.2999559 L94.4531122,73.9507612 L94.3823725,74.2761638 L94.2974849,74.5874185 L94.2267452,74.9128212 L93.9720822,75.8890291 L93.9013425,76.2002837 L93.6466796,77.1764916 L93.5759399,77.4877463 L93.4910522,77.813149 L93.4203125,78.1385516 L93.3354249,78.4639542 L93.2505373,78.7752089 L93.1656496,79.1006116 L93.0949099,79.4260142 L93.0100223,79.7372689 L92.9251346,80.0626715 L92.8543949,80.4729618 L92.7695073,80.7983644 L92.6846196,81.1096191 L92.6138799,81.4350218 L92.4441046,82.085827 L92.3733649,82.4819694 L92.2884773,82.807372 L92.2035897,83.1186267 L92.118702,83.4440293 L92.0479623,83.769432 L91.9630747,84.0948346 L91.892335,84.4909769 L91.7225597,85.1417822 L91.637672,85.4530369 L91.5669323,85.8633272 L91.4820447,86.1887298 L91.397157,86.5848721 L91.3122694,86.9102748 L91.2415297,87.2356774 L91.1566421,87.5469321 L91.0859023,87.9572224 L91.0010147,88.2684771 L90.9161271,88.5938797 L90.8312394,89.00417 L90.7604997,89.3295726 L90.6756121,89.7257149 L90.5907244,90.0511176 L90.5058368,90.3623723 L90.4350971,90.7726625 L90.3502094,91.0839172 L90.2794697,91.4942075 L90.1945821,91.5790951 L89.9540671,91.5790951 L89.5437768,91.4942075 L89.2325221,91.4093199 L88.9071195,91.3385802 L88.2563142,91.1688049 L87.9450595,91.0839172 L87.5347693,91.0131775 L87.2093666,90.9282899 L86.883964,90.8575502 L86.5727093,90.7726625 L86.162419,90.6877749 L85.8370164,90.6028872 L85.5257617,90.5321475 L85.2003591,90.4472599 L84.8042167,90.3623723 L84.4788141,90.2916326 L84.0685238,90.2067449 L83.7431212,90.1218573 L83.3469789,90.0511176 L82.6961736,89.8813423 L82.3000313,89.8106026 L81.889741,89.7257149 L81.5784863,89.6408273 L81.168196,89.5559396 L80.8569413,89.4851999 L80.446651,89.4003123 L80.1212484,89.3295726 L79.3289637,89.1597973 L78.9186735,89.0749097 L78.6781585,89.00417 L78.6781585,84.9012672 L78.7488982,79.5109018 L78.8337858,74.5874185 L78.9186735,70.1732611 L79.0035611,66.0562104 L79.0743008,62.2928582 L79.1591884,58.7417251 L79.2440761,55.3745152 L79.3289637,52.1487848 L79.3997034,48.9372023 L79.6402184,48.8523146 L79.9656211,48.767427 L80.3617634,48.6825393 L80.7720537,48.6117996 L81.168196,48.526912 L81.4935986,48.4420243 L81.889741,48.3571367 L82.2151436,48.286397 L82.6254339,48.2015094 L83.0215762,48.1307697 L83.3469789,48.045882 L83.8280088,47.9609944 L84.1534115,47.8761067 L84.5495538,47.805367 L84.9598441,47.7204794 L85.2852467,47.6355917 L85.6813891,47.564852 L86.0916793,47.4799644 L86.402934,47.3950767 L86.8132243,47.324337 L87.1386269,47.2394494 L87.5347693,47.1545618 L87.9450595,47.0838221 L88.2563142,46.9989344 L88.6666045,46.9140468 L89.0627468,46.8433071 L89.4730371,46.7584194 L89.8691795,46.6735318 L90.1945821,46.6027921 L90.5907244,46.5179044 L90.9161271,46.4330168 L91.3122694,46.3481291 L91.7225597,46.2773894 L92.118702,46.1925018 L92.4441046,46.1217621 L92.8543949,46.0368745 L93.2505373,45.9519868 L93.5759399,45.8670992 L93.9720822,45.7963595 L94.3823725,45.7114718 L94.7077751,45.6265842 L95.1039175,45.5416965 L95.4293201,45.4709568 L95.8254624,45.3860692 L96.2357527,45.3153295 L96.5611554,45.2304418 L96.9572977,45.1455542 L97.367588,45.0606666 L97.7637303,44.9899268 L98.0891329,44.9050392 L98.4852753,44.8201516 L98.8955655,44.7352639 L99.2068202,44.6645242 L99.6171105,44.5796366 L99.9283652,44.5088969 L100.338655,44.4240092 L100.734798,44.3391216 L101.0602,44.2542339 L101.470491,44.1834942 L101.866633,44.0986066 L102.192036,44.0278669 L102.588178,43.9429792 L102.998468,43.8580916 L103.323871,43.773204 L103.720013,43.7024643 L104.130304,43.6175766 L104.455706,43.532689 L104.766961,43.4619493 L105.247991,43.3770616 L105.573393,43.292174 L105.983684,43.2214343 L106.294938,43.1365466 L106.691081,43.051659 L107.016483,42.9809193 L107.426774,42.8960316 L107.822916,42.811144 L108.148319,42.7262564 L108.558609,42.6555167 L108.954751,42.570629 L109.280154,42.4998893 L109.676296,42.4150017 L110.001699,42.330114 L110.397841,42.2452264 L110.808132,42.1744867 L111.119386,42.089599 L111.529676,42.0047114 L111.855079,41.9198237 L112.251221,41.849084 L112.661512,41.7641964 L112.972766,41.6934567 L113.383057,41.6085691 L113.708459,41.5236814 L114.104602,41.4387938 L114.430004,41.3680541 L114.840295,41.2831664 L115.151549,41.1982788 L115.56184,41.1275391 L115.957982,41.0426514 L116.283385,40.9577638 L116.679527,40.8870241 L117.004929,40.8021364 L117.401072,40.7172488 L117.726474,40.6323612 L118.136765,40.5616215 L118.462167,40.4767338 L118.85831,40.4059941 L119.183712,40.3211065 L119.579855,40.2362188 L119.905257,40.1513312 L120.315548,40.0805915 L120.71169,39.9957038 Z M118.999789,91.4376157 C119.499683,88.4759805 120.004293,85.5096286 120.513619,82.5385611 C121.022945,79.5674876 121.546418,76.5869878 122.08404,73.5970627 C122.602798,70.6165638 123.138062,67.6266318 123.689831,64.6272684 C124.241601,61.627905 124.800445,58.6285416 125.366362,55.6291782 C124.319415,55.7329286 123.277183,55.8390381 122.239667,55.9475068 C121.202143,56.0559755 120.164628,56.1620851 119.127121,56.2658355 C118.080173,56.379019 117.037941,56.4874877 116.000426,56.5912381 C114.96291,56.6949885 113.920678,56.8034572 112.873731,56.9166407 C114.033862,53.7852311 115.373201,50.3001194 116.891746,46.4613127 C120.683396,45.8670992 124.470328,45.2752448 128.252542,44.6857461 C132.034759,44.0960644 135.812259,43.5136397 139.585043,42.9384755 C143.338962,42.3627448 147.092884,41.794468 150.846803,41.2336486 C154.600722,40.6724458 158.349927,40.1088874 162.094416,39.5429697 C161.132356,41.2124267 160.179729,42.8724506 159.236532,44.5230448 C158.293335,46.173639 157.359571,47.8148001 156.43524,49.4465281 C155.143062,49.7200538 153.853241,49.9888647 152.565778,50.2529607 C151.278316,50.5170568 149.993212,50.7764345 148.710464,51.0310975 C145.99406,51.5970151 143.437997,52.1157741 141.042281,52.5873709 C140.127327,55.7942386 139.219502,58.996388 138.318802,62.1938226 C137.41805,65.3912572 136.529087,68.5839752 135.651915,71.7719783 C134.784174,74.941117 133.928224,78.1102557 133.084064,81.2793944 C132.239866,84.4485331 131.40278,87.6035238 130.572804,90.7443667 C129.601313,90.8103902 128.632179,90.8716981 127.665403,90.9282899 C126.698627,90.9848816 125.734209,91.0414734 124.772149,91.0980652 L118.999789,91.4376157 Z" id="Loft" fill="#E42626"></path>
            </g>
        </g>
    </g>
</svg>